                           888      888 888               888 888 
                           888      888 888               888 888 
                           888      888 888               888 888 
              .d88b.   .d88888  .d88888 88888b.   8888b.  888 888 
             d88""88b d88" 888 d88" 888 888 "88b     "88b 888 888 
             888  888 888  888 888  888 888  888 .d888888 888 888 
             Y88..88P Y88b 888 Y88b 888 888 d88P 888  888 888 888 
              "Y88P"   "Y88888  "Y88888 88888P"  "Y888888 888 888 
                                       -links.com 


Layer Cake is a 2004 British gangster thriller, directed by Matthew Vaughn. It is based on the novel Layer Cake by J. J. Connolly.

The title refers to the human social strata, especially in the British crime underworld, as well as the numerous plot layers in the film.


                                    +-+-+-+-+
                                    |c|a|s|t|
                                    +-+-+-+-+
                                         
                  Actor                              Role

                  Daniel Craig ....................  XXXX 
                  Tom Hardy ......................  Clarkie 
                  Jamie Foreman ..................  Duke 
                  Sally Hawkins ..................  Slasher 
                  Burn Gorman ....................  Gazza 
                  Brinley Green ..................  Nobby 
                  George Harris ..................  Morty 
                  Tamer Hassan ...................  Terry 
                  Colm Meaney ....................  Gene 
                  Marcel Iures ...................  Slavo 
                  Francis Magee ..................  Paul the Boatman 
                  Dimitri Andreas ................  Angelo 
                  Kenneth Cranham ................  Jimmy Price 
                  Garry Tubbs ....................  Brian 
                  Nathalie Lunghi ................  Charlie

 General
Complete name                    : Layer Cake - 2004
Format                           : AVI
Format/Info                      : Audio Video Interleave
File size                        : 701 MiB
Duration                         : 1h 40mn
Overall bit rate                 : 972 Kbps
Writing application              : VirtualDubMod 1.5.10.1 (build 2366/release)
Writing library                  : VirtualDubMod build 2366/release

Video
Format                           : MPEG-4 Visual
Format profile                   : Streaming Video@L1
Format settings, BVOP            : Yes
Format settings, QPel            : No
Format settings, GMC             : No warppoints
Format settings, Matrix          : Default
Codec ID                         : DX50
Codec ID/Hint                    : DivX 5
Duration                         : 1h 40mn
Bit rate                         : 851 Kbps
Width                            : 580 pixels
Height                           : 236 pixels
Display aspect ratio             : 2.458
Frame rate                       : 25.000 fps
Resolution                       : 24 bits
Colorimetry                      : 4:2:0
Scan type                        : Progressive
Bits/(Pixel*Frame)               : 0.249
Stream size                      : 614 MiB (87%)
Writing library                  : XviD 1.0.3 (UTC 2004-12-20)

Audio
Format                           : MPEG Audio
Format version                   : Version 1
Format profile                   : Layer 3
Codec ID                         : 55
Codec ID/Hint                    : MP3
Duration                         : 1h 40mn
Bit rate mode                    : Constant
Bit rate                         : 112 Kbps
Channel(s)                       : 2 channels
Sampling rate                    : 48.0 KHz
Resolution                       : 16 bits
Stream size                      : 80.8 MiB (12%)
Alignment                        : Aligned on interleaves
Interleave, duration             : 40 ms (1.00 video frame)
Interleave, preload duration     : 504 ms
Writing library                  : LAME3.90.3

For more oddball torrents  http://thepiratebay.org/user/oddball-links `                                                                                                            Please seed after downloading `                                                                                            :::===  :::===== :::===== :::====       :::= === :::====  :::====
        :::     :::      :::      :::  ===      :::===== :::  === :::====
         =====  ======   ======   ===  ===      ======== ===  ===   ===  
            === ===      ===      ===  ===      === ==== ===  ===   ===  
        ======  ======== ======== =======       ===  ===  ======    ===  
                                                                         
                  :::=====  :::====  :::===== :::===== :::==== 
                  :::       :::  === :::      :::      :::  ===
                  === ===== =======  ======   ======   ===  ===
                  ===   === === ===  ===      ===      ===  ===
                   =======  ===  === ======== ======== =======	